<svg xmlns="http://www.w3.org/2000/svg" width="600" height="760" viewBox="0 0 600 760">
  <rect width="600" height="760" fill="#0f0509"/>
  <g stroke="#2a1420" stroke-width="1">
    <path d="M0 95h600M0 190h600M0 285h600M0 380h600M0 475h600M0 570h600M0 665h600"/>
    <path d="M75 0v760M150 0v760M225 0v760M300 0v760M375 0v760M450 0v760M525 0v760"/>
  </g>
  <text x="40" y="70" font-family="monospace" font-size="16" fill="#8a8a8a" letter-spacing="6">SAY // HELLO</text>
  <circle cx="300" cy="370" r="150" fill="none" stroke="#ff2d9a" stroke-width="2" opacity="0.4"/>
  <circle cx="300" cy="370" r="110" fill="none" stroke="#ff2d9a" stroke-width="2" opacity="0.6"/>
  <circle cx="300" cy="370" r="70" fill="none" stroke="#ff2d9a" stroke-width="3"/>
  <text x="300" y="392" font-family="monospace" font-size="56" fill="#ff2d9a" text-anchor="middle">@</text>
  <text x="40" y="712" font-family="monospace" font-size="26" fill="#f4f4f4" font-weight="bold">LET'S WORK</text>
  <text x="40" y="742" font-family="monospace" font-size="26" fill="#ff2d9a" font-weight="bold">TOGETHER_2026</text>
</svg>
