<svg xmlns="http://www.w3.org/2000/svg" width="600" height="760" viewBox="0 0 600 760">
  <rect width="600" height="760" fill="#0a0a0c"/>
  <g stroke="#1c1c22" stroke-width="1">
    <path d="M0 95h600M0 190h600M0 285h600M0 380h600M0 475h600M0 570h600M0 665h600"/>
    <path d="M75 0v760M150 0v760M225 0v760M300 0v760M375 0v760M450 0v760M525 0v760"/>
  </g>
  <text x="40" y="70" font-family="monospace" font-size="16" fill="#8a8a8a" letter-spacing="6">CV // EYE-STATE</text>
  <ellipse cx="300" cy="360" rx="200" ry="105" fill="none" stroke="#f4f4f4" stroke-width="4"/>
  <ellipse cx="300" cy="360" rx="200" ry="105" fill="none" stroke="#ff2d9a" stroke-width="1" opacity="0.5" transform="rotate(4 300 360)"/>
  <circle cx="300" cy="360" r="62" fill="none" stroke="#ff2d9a" stroke-width="5"/>
  <circle cx="300" cy="360" r="26" fill="#ff2d9a"/>
  <circle cx="318" cy="342" r="9" fill="#0a0a0c"/>
  <g stroke="#ff2d9a" stroke-width="2" opacity="0.85">
    <path d="M120 360h-60M540 360h-60M300 210v-55M300 510v55"/>
  </g>
  <rect x="70" y="255" width="460" height="210" fill="none" stroke="#3dff88" stroke-width="2" stroke-dasharray="10 8"/>
  <text x="80" y="243" font-family="monospace" font-size="14" fill="#3dff88">EYES: OPEN — ALERT</text>
  <text x="40" y="712" font-family="monospace" font-size="26" fill="#f4f4f4" font-weight="bold">DROWSINESS</text>
  <text x="40" y="742" font-family="monospace" font-size="26" fill="#ff2d9a" font-weight="bold">DETECTION_SYS</text>
</svg>
