<svg xmlns="http://www.w3.org/2000/svg" width="600" height="760" viewBox="0 0 600 760">
  <rect width="600" height="760" fill="#0a0a0c"/>
  <g stroke="#1c1c22" stroke-width="1">
    <path d="M0 95h600M0 190h600M0 285h600M0 380h600M0 475h600M0 570h600M0 665h600"/>
    <path d="M75 0v760M150 0v760M225 0v760M300 0v760M375 0v760M450 0v760M525 0v760"/>
  </g>
  <text x="40" y="70" font-family="monospace" font-size="16" fill="#8a8a8a" letter-spacing="6">GIT // KOOLDPP</text>
  <g fill="none" stroke="#f4f4f4" stroke-width="4">
    <circle cx="200" cy="260" r="26"/>
    <circle cx="200" cy="520" r="26"/>
    <circle cx="420" cy="390" r="26"/>
    <path d="M200 286v208"/>
    <path d="M200 300 C200 380 420 300 420 364"/>
  </g>
  <circle cx="420" cy="390" r="12" fill="#ff2d9a"/>
  <text x="255" y="268" font-family="monospace" font-size="15" fill="#8a8a8a">main</text>
  <text x="460" y="398" font-family="monospace" font-size="15" fill="#ff2d9a">feature/ml</text>
  <text x="40" y="712" font-family="monospace" font-size="26" fill="#f4f4f4" font-weight="bold">OPEN SOURCE</text>
  <text x="40" y="742" font-family="monospace" font-size="26" fill="#ff2d9a" font-weight="bold">GITHUB/KOOLDPP</text>
</svg>
