<svg xmlns="http://www.w3.org/2000/svg" width="600" height="760" viewBox="0 0 600 760">
  <rect width="600" height="760" fill="#0a0a0c"/>
  <g stroke="#1c1c22" stroke-width="1">
    <path d="M0 95h600M0 190h600M0 285h600M0 380h600M0 475h600M0 570h600M0 665h600"/>
    <path d="M75 0v760M150 0v760M225 0v760M300 0v760M375 0v760M450 0v760M525 0v760"/>
  </g>
  <text x="40" y="70" font-family="monospace" font-size="16" fill="#8a8a8a" letter-spacing="6">VIZ // ANALYTICS</text>
  <g>
    <rect x="60" y="470" width="52" height="150" fill="#2a2a30"/>
    <rect x="130" y="400" width="52" height="220" fill="#2a2a30"/>
    <rect x="200" y="430" width="52" height="190" fill="#ff2d9a"/>
    <rect x="270" y="330" width="52" height="290" fill="#2a2a30"/>
    <rect x="340" y="250" width="52" height="370" fill="#ff2d9a"/>
    <rect x="410" y="300" width="52" height="320" fill="#2a2a30"/>
    <rect x="480" y="180" width="52" height="440" fill="#f4f4f4"/>
  </g>
  <path d="M86 430 L156 360 L226 390 L296 290 L366 210 L436 260 L506 140"
    fill="none" stroke="#ff2d9a" stroke-width="3" stroke-dasharray="1 0"/>
  <text x="40" y="712" font-family="monospace" font-size="26" fill="#f4f4f4" font-weight="bold">DATA</text>
  <text x="40" y="742" font-family="monospace" font-size="26" fill="#ff2d9a" font-weight="bold">VISUALIZATION</text>
</svg>
